<svg viewBox="0 0 800 520" xmlns="http://www.w3.org/2000/svg" font-family="-apple-system,BlinkMacSystemFont,'Segoe UI',sans-serif">
  <!-- Background -->
  <rect width="800" height="520" fill="#f1f5f9"/>

  <!-- Sidebar -->
  <rect width="170" height="520" fill="#001e3c"/>
  <!-- Sidebar logo area -->
  <rect x="0" y="0" width="170" height="60" fill="#001830"/>
  <text x="16" y="28" font-size="11" font-weight="700" fill="#ffffff" letter-spacing="-0.3">HSB STARSCAPE</text>
  <text x="16" y="42" font-size="7" fill="rgba(255,255,255,0.4)" letter-spacing="0.5">HOCHSCHULE BREMEN</text>
  <!-- Sidebar nav items -->
  <rect x="0" y="72" width="4" height="32" fill="#009fad"/>
  <rect x="0" y="72" width="170" height="32" fill="rgba(0,159,173,0.18)"/>
  <rect x="16" y="83" width="12" height="12" rx="2" fill="rgba(255,255,255,0.7)"/>
  <rect x="36" y="86" width="60" height="6" rx="2" fill="rgba(255,255,255,0.85)"/>
  <rect x="16" y="116" width="12" height="12" rx="2" fill="rgba(255,255,255,0.25)"/>
  <rect x="36" y="119" width="70" height="6" rx="2" fill="rgba(255,255,255,0.3)"/>
  <rect x="16" y="144" width="12" height="12" rx="2" fill="rgba(255,255,255,0.25)"/>
  <rect x="36" y="147" width="55" height="6" rx="2" fill="rgba(255,255,255,0.3)"/>
  <rect x="16" y="172" width="12" height="12" rx="2" fill="rgba(255,255,255,0.25)"/>
  <rect x="36" y="175" width="50" height="6" rx="2" fill="rgba(255,255,255,0.3)"/>
  <rect x="16" y="200" width="12" height="12" rx="2" fill="rgba(255,255,255,0.25)"/>
  <rect x="36" y="203" width="62" height="6" rx="2" fill="rgba(255,255,255,0.3)"/>
  <!-- Sidebar user -->
  <rect x="10" y="460" width="150" height="44" rx="8" fill="rgba(0,159,173,0.18)" stroke="rgba(0,159,173,0.3)" stroke-width="1"/>
  <circle cx="30" cy="482" r="10" fill="#009fad"/>
  <text x="30" y="486" text-anchor="middle" font-size="9" font-weight="700" fill="#fff">G</text>
  <rect x="48" y="475" width="52" height="6" rx="2" fill="rgba(255,255,255,0.7)"/>
  <rect x="48" y="487" width="70" height="5" rx="2" fill="rgba(255,255,255,0.3)"/>

  <!-- Topbar -->
  <rect x="170" y="0" width="630" height="50" fill="rgba(255,255,255,0.95)"/>
  <rect x="170" y="50" width="630" height="1" fill="rgba(0,63,128,0.08)"/>
  <!-- Search bar -->
  <rect x="190" y="12" width="260" height="26" rx="7" fill="rgba(0,63,128,0.05)" stroke="#003f80" stroke-width="1.5"/>
  <circle cx="207" cy="25" r="5" stroke="rgba(0,63,128,0.35)" stroke-width="1.5" fill="none"/>
  <rect x="218" y="22" width="80" height="5" rx="2" fill="rgba(0,63,128,0.18)"/>
  <!-- Sign in button -->
  <rect x="680" y="12" width="90" height="26" rx="6" fill="#003f80"/>
  <rect x="690" y="19" width="8" height="8" rx="4" fill="rgba(255,255,255,0.6)"/>
  <rect x="703" y="22" width="42" height="5" rx="2" fill="rgba(255,255,255,0.85)"/>

  <!-- Banner -->
  <rect x="182" y="66" width="606" height="100" rx="10" fill="url(#bannerGrad)"/>
  <text x="206" y="98" font-size="16" font-weight="700" fill="#ffffff" letter-spacing="-0.4">Science in the City.</text>
  <rect x="206" y="107" width="260" height="5" rx="2" fill="rgba(255,255,255,0.4)"/>
  <rect x="206" y="117" width="220" height="5" rx="2" fill="rgba(255,255,255,0.3)"/>
  <!-- Stats -->
  <text x="600" y="100" text-anchor="middle" font-size="18" font-weight="700" fill="#fff">9</text>
  <rect x="575" y="107" width="50" height="4" rx="2" fill="rgba(255,255,255,0.4)"/>
  <text x="660" y="100" text-anchor="middle" font-size="18" font-weight="700" fill="#fff">70+</text>
  <rect x="636" y="107" width="50" height="4" rx="2" fill="rgba(255,255,255,0.4)"/>

  <!-- 4 Cards -->
  <rect x="182" y="182" width="140" height="110" rx="8" fill="#ffffff" stroke="rgba(0,0,0,0.06)" stroke-width="1"/>
  <rect x="182" y="182" width="140" height="3" rx="1.5" fill="url(#cardTop)"/>
  <rect x="196" y="198" width="22" height="22" rx="5" fill="rgba(0,63,128,0.07)"/>
  <rect x="196" y="230" width="70" height="6" rx="2" fill="#003f80" opacity="0.85"/>
  <rect x="196" y="242" width="110" height="4" rx="2" fill="rgba(0,0,0,0.12)"/>
  <rect x="196" y="251" width="90" height="4" rx="2" fill="rgba(0,0,0,0.08)"/>
  <rect x="196" y="270" width="55" height="5" rx="2" fill="#009fad" opacity="0.7"/>

  <rect x="332" y="182" width="140" height="110" rx="8" fill="#ffffff" stroke="rgba(0,0,0,0.06)" stroke-width="1"/>
  <rect x="332" y="182" width="140" height="3" rx="1.5" fill="url(#cardTop)"/>
  <rect x="346" y="198" width="22" height="22" rx="5" fill="rgba(0,63,128,0.07)"/>
  <rect x="346" y="230" width="60" height="6" rx="2" fill="#003f80" opacity="0.85"/>
  <rect x="346" y="242" width="110" height="4" rx="2" fill="rgba(0,0,0,0.12)"/>
  <rect x="346" y="251" width="90" height="4" rx="2" fill="rgba(0,0,0,0.08)"/>
  <rect x="346" y="270" width="55" height="5" rx="2" fill="#009fad" opacity="0.7"/>

  <rect x="482" y="182" width="140" height="110" rx="8" fill="#ffffff" stroke="rgba(0,0,0,0.06)" stroke-width="1"/>
  <rect x="482" y="182" width="140" height="3" rx="1.5" fill="url(#cardTop)"/>
  <rect x="496" y="198" width="22" height="22" rx="5" fill="rgba(0,63,128,0.07)"/>
  <rect x="496" y="230" width="75" height="6" rx="2" fill="#003f80" opacity="0.85"/>
  <rect x="496" y="242" width="110" height="4" rx="2" fill="rgba(0,0,0,0.12)"/>
  <rect x="496" y="251" width="90" height="4" rx="2" fill="rgba(0,0,0,0.08)"/>
  <rect x="496" y="270" width="55" height="5" rx="2" fill="#009fad" opacity="0.7"/>

  <rect x="632" y="182" width="140" height="110" rx="8" fill="#ffffff" stroke="rgba(0,0,0,0.06)" stroke-width="1"/>
  <rect x="632" y="182" width="140" height="3" rx="1.5" fill="url(#cardTop)"/>
  <rect x="646" y="198" width="22" height="22" rx="5" fill="rgba(0,63,128,0.07)"/>
  <rect x="646" y="230" width="65" height="6" rx="2" fill="#003f80" opacity="0.85"/>
  <rect x="646" y="242" width="110" height="4" rx="2" fill="rgba(0,0,0,0.12)"/>
  <rect x="646" y="251" width="90" height="4" rx="2" fill="rgba(0,0,0,0.08)"/>
  <rect x="646" y="270" width="55" height="5" rx="2" fill="#009fad" opacity="0.7"/>

  <!-- Bottom panels -->
  <rect x="182" y="308" width="290" height="196" rx="8" fill="#ffffff" stroke="rgba(0,0,0,0.06)" stroke-width="1"/>
  <rect x="196" y="322" width="90" height="6" rx="2" fill="#003f80" opacity="0.85"/>
  <!-- event items -->
  <rect x="196" y="344" width="32" height="36" rx="5" fill="#009fad" opacity="0.85"/>
  <rect x="238" y="349" width="130" height="5" rx="2" fill="rgba(0,0,0,0.2)"/>
  <rect x="238" y="360" width="80" height="4" rx="2" fill="rgba(0,0,0,0.1)"/>
  <rect x="238" y="369" width="40" height="10" rx="3" fill="rgba(0,159,173,0.12)"/>
  <rect x="196" y="394" width="32" height="36" rx="5" fill="#009fad" opacity="0.85"/>
  <rect x="238" y="399" width="110" height="5" rx="2" fill="rgba(0,0,0,0.2)"/>
  <rect x="238" y="410" width="80" height="4" rx="2" fill="rgba(0,0,0,0.1)"/>
  <rect x="238" y="419" width="48" height="10" rx="3" fill="rgba(0,63,128,0.1)"/>
  <rect x="196" y="444" width="32" height="36" rx="5" fill="#009fad" opacity="0.85"/>
  <rect x="238" y="449" width="150" height="5" rx="2" fill="rgba(0,0,0,0.2)"/>
  <rect x="238" y="460" width="80" height="4" rx="2" fill="rgba(0,0,0,0.1)"/>

  <rect x="482" y="308" width="290" height="196" rx="8" fill="#ffffff" stroke="rgba(0,0,0,0.06)" stroke-width="1"/>
  <rect x="496" y="322" width="110" height="6" rx="2" fill="#003f80" opacity="0.85"/>
  <!-- space items -->
  <rect x="496" y="342" width="258" height="70" rx="6" fill="rgba(0,63,128,0.04)" stroke="rgba(0,0,0,0.06)" stroke-width="1"/>
  <rect x="496" y="342" width="258" height="48" rx="6" fill="rgba(0,63,128,0.05)"/>
  <rect x="496" y="422" width="258" height="70" rx="6" fill="rgba(0,63,128,0.04)" stroke="rgba(0,0,0,0.06)" stroke-width="1"/>
  <rect x="496" y="422" width="258" height="48" rx="6" fill="rgba(0,159,173,0.05)"/>

  <defs>
    <linearGradient id="bannerGrad" x1="0" y1="0" x2="1" y2="0">
      <stop offset="0%" stop-color="#003f80"/>
      <stop offset="60%" stop-color="#0056a8"/>
      <stop offset="100%" stop-color="#0077cc"/>
    </linearGradient>
    <linearGradient id="cardTop" x1="0" y1="0" x2="1" y2="0">
      <stop offset="0%" stop-color="#003f80"/>
      <stop offset="100%" stop-color="#009fad"/>
    </linearGradient>
  </defs>
</svg>
